PathFileType	4	(X/Y/Z)	C:\Users\86182\Documents\cortex\Trimmed_M4_L12.trc
DataRate	CameraRate	NumFrames	NumMarkers	Units	OrigDataRate	OrigDataStartFrame	OrigNumFrames
100.00	100.00	       101	2	mm	100.00	1	       901
Frame#	Time	gripper			box			
		X1	Y1	Z1	X2	Y2	Z2	

1	0.000	275.49344	149.34924	192.13939	278.63770	146.59601	57.08213	
2	0.010	275.49475	149.34686	192.13702	278.63721	146.59621	57.08094	
3	0.020	275.49521	149.34500	192.13446	278.63647	146.59645	57.07951	
4	0.030	275.49478	149.34395	192.13213	278.63614	146.59654	57.07788	
5	0.040	275.49362	149.34381	192.13036	278.63657	146.59636	57.07635	
6	0.050	275.49191	149.34450	192.12926	278.63779	146.59590	57.07539	
7	0.060	275.48975	149.34595	192.12892	278.63959	146.59526	57.07541	
8	0.070	275.48734	149.34818	192.12950	278.64175	146.59460	57.07647	
9	0.080	275.48492	149.35091	192.13100	278.64404	146.59407	57.07834	
10	0.090	275.48291	149.35356	192.13287	278.64621	146.59372	57.08064	
11	0.100	275.48148	149.35558	192.13443	278.64816	146.59354	57.08300	
12	0.110	275.48062	149.35658	192.13501	278.64975	146.59344	57.08501	
13	0.120	275.48032	149.35643	192.13440	278.65100	146.59331	57.08624	
14	0.130	275.48062	149.35519	192.13266	278.65176	146.59306	57.08644	
15	0.140	275.48132	149.35320	192.13020	278.65186	146.59282	57.08573	
16	0.150	275.48233	149.35094	192.12767	278.65103	146.59273	57.08440	
17	0.160	275.48358	149.34882	192.12572	278.64954	146.59276	57.08258	
18	0.170	275.48517	149.34714	192.12491	278.64813	146.59273	57.08045	
19	0.180	275.48697	149.34605	192.12546	278.64755	146.59248	57.07825	
20	0.190	275.48883	149.34557	192.12704	278.64792	146.59207	57.07633	
21	0.200	275.49048	149.34550	192.12910	278.64886	146.59166	57.07506	
22	0.210	275.49170	149.34592	192.13141	278.65009	146.59134	57.07467	
23	0.220	275.49249	149.34679	192.13394	278.65121	146.59117	57.07525	
24	0.230	275.49307	149.34795	192.13669	278.65189	146.59125	57.07672	
25	0.240	275.49368	149.34914	192.13953	278.65186	146.59164	57.07879	
26	0.250	275.49429	149.35022	192.14215	278.65088	146.59236	57.08106	
27	0.260	275.49454	149.35127	192.14427	278.64899	146.59332	57.08316	
28	0.270	275.49411	149.35225	192.14540	278.64648	146.59436	57.08480	
29	0.280	275.49292	149.35301	192.14514	278.64398	146.59529	57.08585	
30	0.290	275.49112	149.35344	192.14351	278.64188	146.59595	57.08632	
31	0.300	275.48892	149.35359	192.14087	278.64041	146.59637	57.08646	
32	0.310	275.48657	149.35368	192.13791	278.63971	146.59657	57.08653	
33	0.320	275.48413	149.35396	192.13518	278.63977	146.59659	57.08665	
34	0.330	275.48187	149.35446	192.13306	278.64041	146.59645	57.08682	
35	0.340	275.48010	149.35503	192.13170	278.64133	146.59625	57.08696	
36	0.350	275.47913	149.35536	192.13098	278.64209	146.59602	57.08691	
37	0.360	275.47894	149.35527	192.13057	278.64255	146.59578	57.08650	
38	0.370	275.47937	149.35474	192.13025	278.64267	146.59555	57.08582	
39	0.380	275.48016	149.35414	192.13026	278.64258	146.59544	57.08514	
40	0.390	275.48096	149.35397	192.13103	278.64240	146.59549	57.08464	
41	0.400	275.48154	149.35437	192.13248	278.64224	146.59564	57.08430	
42	0.410	275.48187	149.35501	192.13402	278.64212	146.59584	57.08389	
43	0.420	275.48199	149.35548	192.13498	278.64209	146.59596	57.08318	
44	0.430	275.48209	149.35542	192.13499	278.64240	146.59586	57.08195	
45	0.440	275.48233	149.35472	192.13408	278.64331	146.59535	57.08014	
46	0.450	275.48276	149.35347	192.13251	278.64481	146.59445	57.07806	
47	0.460	275.48334	149.35199	192.13074	278.64645	146.59341	57.07626	
48	0.470	275.48401	149.35056	192.12918	278.64795	146.59244	57.07508	
49	0.480	275.48444	149.34952	192.12798	278.64932	146.59160	57.07463	
50	0.490	275.48434	149.34903	192.12704	278.65073	146.59087	57.07483	
51	0.500	275.48364	149.34901	192.12608	278.65210	146.59030	57.07563	
52	0.510	275.48254	149.34917	192.12489	278.65323	146.59007	57.07706	
53	0.520	275.48135	149.34933	192.12361	278.65396	146.59027	57.07913	
54	0.530	275.48029	149.34962	192.12273	278.65436	146.59085	57.08168	
55	0.540	275.47946	149.35022	192.12263	278.65460	146.59158	57.08434	
56	0.550	275.47879	149.35110	192.12329	278.65488	146.59222	57.08659	
57	0.560	275.47830	149.35211	192.12436	278.65527	146.59265	57.08819	
58	0.570	275.47809	149.35289	192.12543	278.65570	146.59290	57.08921	
59	0.580	275.47852	149.35301	192.12621	278.65598	146.59306	57.08988	
60	0.590	275.47986	149.35228	192.12674	278.65585	146.59326	57.09029	
61	0.600	275.48193	149.35092	192.12714	278.65521	146.59348	57.09030	
62	0.610	275.48425	149.34930	192.12744	278.65396	146.59366	57.08976	
63	0.620	275.48624	149.34785	192.12756	278.65189	146.59389	57.08865	
64	0.630	275.48755	149.34676	192.12741	278.64874	146.59425	57.08711	
65	0.640	275.48813	149.34598	192.12683	278.64474	146.59482	57.08541	
66	0.650	275.48810	149.34546	192.12590	278.64059	146.59549	57.08389	
67	0.660	275.48761	149.34526	192.12491	278.63693	146.59615	57.08275	
68	0.670	275.48691	149.34543	192.12425	278.63412	146.59674	57.08206	
69	0.680	275.48608	149.34599	192.12416	278.63235	146.59715	57.08173	
70	0.690	275.48508	149.34697	192.12451	278.63168	146.59731	57.08157	
71	0.700	275.48386	149.34831	192.12518	278.63199	146.59718	57.08143	
72	0.710	275.48248	149.34993	192.12614	278.63290	146.59689	57.08124	
73	0.720	275.48099	149.35173	192.12726	278.63409	146.59650	57.08105	
74	0.730	275.47937	149.35364	192.12837	278.63541	146.59608	57.08093	
75	0.740	275.47775	149.35545	192.12936	278.63669	146.59570	57.08099	
76	0.750	275.47644	149.35693	192.13014	278.63791	146.59535	57.08126	
77	0.760	275.47568	149.35783	192.13068	278.63910	146.59502	57.08173	
78	0.770	275.47552	149.35814	192.13100	278.64041	146.59468	57.08239	
79	0.780	275.47580	149.35800	192.13112	278.64194	146.59438	57.08324	
80	0.790	275.47629	149.35762	192.13115	278.64377	146.59415	57.08425	
81	0.800	275.47699	149.35712	192.13123	278.64584	146.59398	57.08530	
82	0.810	275.47800	149.35646	192.13147	278.64786	146.59387	57.08624	
83	0.820	275.47934	149.35556	192.13176	278.64944	146.59387	57.08699	
84	0.830	275.48071	149.35451	192.13177	278.65030	146.59399	57.08759	
85	0.840	275.48154	149.35350	192.13115	278.65054	146.59422	57.08820	
86	0.850	275.48157	149.35277	192.12985	278.65045	146.59451	57.08887	
87	0.860	275.48096	149.35237	192.12819	278.65005	146.59485	57.08951	
88	0.870	275.48019	149.35217	192.12659	278.64905	146.59525	57.08992	
89	0.880	275.47971	149.35204	192.12526	278.64716	146.59578	57.08999	
90	0.890	275.47968	149.35179	192.12421	278.64429	146.59648	57.08971	
91	0.900	275.48013	149.35133	192.12329	278.64063	146.59735	57.08919	
92	0.910	275.48093	149.35077	192.12271	278.63657	146.59827	57.08847	
93	0.920	275.48190	149.35034	192.12282	278.63284	146.59906	57.08758	
94	0.930	275.48270	149.35016	192.12370	278.63025	146.59950	57.08656	
95	0.940	275.48300	149.35004	192.12517	278.62921	146.59952	57.08551	
96	0.950	275.48227	149.34982	192.12695	278.62964	146.59917	57.08451	
97	0.960	275.47995	149.34962	192.12915	278.63107	146.59862	57.08371	
98	0.970	275.47531	149.34991	192.13222	278.63269	146.59816	57.08337	
99	0.980	275.46768	149.35144	192.13663	278.63345	146.59821	57.08391	
100	0.990	275.45706	149.35474	192.14258	278.63251	146.59908	57.08566	
101	1.000	275.44507	149.35960	192.14960	278.62958	146.60083	57.08867	
